PathFileType	4	(X/Y/Z)
DataRate	CameraRate	NumFrames	NumMarkers	Units	OrigDataRate	OrigDataStartFrame	OrigNumFrames	
  120.0	  120.0	    4	     64	     mm	  120.0	      120	    239
Frame#	Time	LASI			RASI			LPSI			RPSI			RTH1			RTH2			RTH3			RLFC			RMFC			LTH1			LTH2			LTH3			LLFC			LMFC			RTB1			RTB2			RTB3			RLMAL			RMMAL			LTB1			LTB2			LTB3			LMMAL			LLMAL			RCAL			RTOE			RMT5			LCAL			LTOE			LMT5			LACR			RACR			CLAV			C7			LASH			LPSH			RASH			RPSH			RUA1			RUA2			RUA3			RLEL			RMEL			LUA1			LUA2			LUA3			LLEL			LMEL			RFAsuperior			RFAradius			RFAulna			LFAsuperior			LFAradius			LFAulna			RHJC			LHJC			RKJC			LKJC			RAJC			LAJC			RSJC			LSJC			REJC			LEJC			
		X1	Y1	Z1	X2	Y2	Z2	X3	Y3	Z3	X4	Y4	Z4	X5	Y5	Z5	X6	Y6	Z6	X7	Y7	Z7	X8	Y8	Z8	X9	Y9	Z9	X10	Y10	Z10	X11	Y11	Z11	X12	Y12	Z12	X13	Y13	Z13	X14	Y14	Z14	X15	Y15	Z15	X16	Y16	Z16	X17	Y17	Z17	X18	Y18	Z18	X19	Y19	Z19	X20	Y20	Z20	X21	Y21	Z21	X22	Y22	Z22	X23	Y23	Z23	X24	Y24	Z24	X25	Y25	Z25	X26	Y26	Z26	X27	Y27	Z27	X28	Y28	Z28	X29	Y29	Z29	X30	Y30	Z30	X31	Y31	Z31	X32	Y32	Z32	X33	Y33	Z33	X34	Y34	Z34	X35	Y35	Z35	X36	Y36	Z36	X37	Y37	Z37	X38	Y38	Z38	X39	Y39	Z39	X40	Y40	Z40	X41	Y41	Z41	X42	Y42	Z42	X43	Y43	Z43	X44	Y44	Z44	X45	Y45	Z45	X46	Y46	Z46	X47	Y47	Z47	X48	Y48	Z48	X49	Y49	Z49	X50	Y50	Z50	X51	Y51	Z51	X52	Y52	Z52	X53	Y53	Z53	X54	Y54	Z54	X55	Y55	Z55	X56	Y56	Z56	X57	Y57	Z57	X58	Y58	Z58	X59	Y59	Z59	X60	Y60	Z60	X61	Y61	Z61	X62	Y62	Z62	X63	Y63	Z63	X64	Y64	Z64	

120	0.99167	611.92194	1099.10547	-625.66602	756.12958	1106.55640	-405.39670	511.46191	1134.27844	-450.62143	554.16174	1132.38745	-378.32208	723.77246	941.31696	-308.44214	749.15546	830.15271	-328.87415	662.71161	726.20007	-289.87588	683.66998	551.12073	-292.39075	585.60260	532.07953	-367.45526	504.18897	895.21216	-629.81604	535.50470	766.63440	-643.05719	463.31357	665.48773	-585.83673	467.60059	563.88641	-594.18231	516.75873	549.96173	-480.51331	666.27301	416.81552	-355.19629	691.08771	355.63922	-283.04672	668.23517	250.32703	-346.97141	662.47492	124.57229	-286.71701	625.67242	130.94606	-358.68860	513.10114	428.59763	-574.07782	457.96463	348.01563	-609.63873	508.50525	228.98224	-575.11267	502.94904	127.41406	-529.32306	449.23624	124.77828	-589.51788	582.03851	99.34804	-289.16345	742.44806	57.51463	-437.22562	773.82520	54.40097	-324.91745	422.67438	97.40115	-519.00525	630.15912	63.41988	-615.28021	533.89978	53.30246	-680.29163	495.01144	1603.42334	-570.08319	672.58380	1604.23828	-323.48166	671.62860	1550.99072	-472.38693	547.31055	1601.08057	-413.14862	555.88794	1560.29651	-594.83221	428.33408	1541.14014	-547.87836	717.85901	1560.33765	-365.81766	624.76892	1552.72022	-274.66046	718.31867	1570.98877	-236.88553	796.10352	1539.82935	-220.22311	764.88483	1508.02271	-158.38947	882.37787	1498.90820	-67.47083	881.27838	1426.06836	-102.72861	428.98978	1574.52295	-631.66040	435.66641	1556.60169	-693.84216	376.64633	1484.04541	-670.14887	309.37824	1487.94604	-836.30841	329.39477	1410.51685	-827.18518	961.35986	1543.11389	-129.01309	1091.83496	1541.41345	-254.62682	1121.97449	1563.80676	-193.57025	389.11645	1521.11829	-885.18439	554.25952	1513.02478	-967.89606	513.08716	1522.62061	-1027.23474	672.62341	1032.12206	-397.14895	576.20079	1030.12087	-551.69975	634.63629	541.60013	-329.92300	492.17966	556.92407	-537.34781	644.07367	127.75917	-322.70280	476.09264	126.09617	-559.42047	671.31397	1556.52893	-320.23906	492.11101	1550.71832	-571.35529	881.82813	1462.48828	-85.09972	319.38651	1449.23145	-831.74680	
121	1.00000	611.97473	1099.07202	-625.76550	756.20233	1106.56067	-405.40121	511.50021	1134.32983	-450.65375	554.19427	1132.39746	-378.35086	723.85168	941.33582	-308.50345	749.19287	830.15350	-328.89004	662.74493	726.21558	-289.91242	683.68201	551.16290	-292.35590	585.67767	532.08496	-367.49005	504.24954	895.21912	-629.86285	535.55383	766.63696	-643.07275	463.38739	665.48254	-585.89380	467.62946	563.88397	-594.19250	516.75903	549.96155	-480.51340	666.27179	416.77734	-355.17975	691.10107	355.63846	-283.03375	668.17499	250.09950	-346.73401	662.49097	124.58315	-286.69934	625.58295	130.85864	-358.66806	513.13684	428.59580	-574.14008	457.95590	348.01218	-609.62085	508.47800	228.96277	-575.11352	502.94922	127.41402	-529.32300	449.21600	124.78899	-589.51135	582.01477	99.34416	-289.17789	742.51477	57.65580	-437.48544	773.75928	54.44116	-324.56174	422.71612	97.39875	-519.00098	630.16620	63.43603	-615.30188	533.88489	53.30144	-680.29456	495.07947	1603.38037	-570.14386	672.63672	1604.23926	-323.52985	671.70160	1550.99780	-472.45212	547.37897	1601.05774	-413.23645	555.94196	1560.29053	-594.85346	428.37619	1541.07007	-547.96106	717.87048	1560.35229	-365.67105	624.85950	1552.80432	-274.52362	718.38336	1570.98462	-236.91524	796.17450	1539.81494	-220.29176	764.97516	1508.04724	-158.36942	882.45746	1498.85584	-67.55780	881.40418	1426.02356	-102.83915	429.05469	1574.47449	-631.67200	435.79373	1556.51428	-693.92224	376.69342	1483.94800	-670.21857	309.43195	1487.82715	-836.35986	329.52460	1410.43457	-827.25415	961.49884	1543.09094	-128.92860	1091.89404	1541.36365	-254.69548	1122.06079	1563.74817	-193.61391	389.23071	1521.01050	-885.27008	554.40857	1512.84534	-967.95697	513.20642	1522.47253	-1027.27637	672.67007	1032.13531	-397.17886	576.24256	1030.11423	-551.72582	634.67984	541.62393	-329.92297	492.19424	556.92276	-537.35295	644.03696	127.72090	-322.68370	476.08261	126.10150	-559.41718	671.36499	1556.57831	-320.09734	492.15907	1550.68030	-571.40726	881.93082	1462.43970	-85.19847	319.47827	1449.13086	-831.80701	
122	1.00833	612.04321	1099.07361	-625.82361	756.26965	1106.56531	-405.45828	511.53897	1134.33264	-450.66598	554.24097	1132.40991	-378.36563	723.92163	941.31738	-308.50800	749.24634	830.14819	-328.92627	662.78607	726.22028	-289.92136	683.72552	551.11560	-292.42416	585.70251	532.07666	-367.49548	504.28830	895.21509	-629.86603	535.62921	766.61414	-643.14490	463.46271	665.48273	-585.93646	467.70221	563.89008	-594.22949	516.81622	549.95441	-480.50916	666.28784	416.77744	-355.15616	691.11414	355.64844	-283.00992	668.21515	250.35310	-346.93167	662.48804	124.60189	-286.69955	625.61469	130.88664	-358.73254	513.18793	428.60440	-574.12225	457.96463	348.01563	-609.63873	508.49115	228.96147	-575.12262	502.97659	127.41357	-529.31195	449.22940	124.80326	-589.52020	582.01959	99.36622	-289.15082	742.49329	57.60738	-437.40994	773.76605	54.41502	-324.60467	422.69995	97.39140	-518.97943	630.17822	63.41616	-615.24506	533.87390	53.30519	-680.29749	495.16681	1603.31470	-570.23700	672.69537	1604.24670	-323.56284	671.75732	1550.99597	-472.50595	547.42578	1601.04895	-413.30280	556.02698	1560.23193	-594.91193	428.46078	1540.98767	-548.08057	717.92401	1560.35107	-365.75079	624.92011	1552.82288	-274.57333	718.46448	1570.95276	-236.92395	796.23212	1539.81836	-220.31482	765.05682	1508.01294	-158.41083	882.57227	1498.85999	-67.59257	881.47656	1426.00427	-102.93057	429.15390	1574.45044	-631.76178	435.85986	1556.44800	-693.99445	376.75205	1483.87817	-670.23834	309.56079	1487.74573	-836.44873	329.64322	1410.30493	-827.34491	961.55255	1543.04541	-129.07289	1091.96887	1541.24707	-254.75121	1122.16516	1563.71460	-193.65251	389.36121	1520.89807	-885.27594	554.47357	1512.68018	-967.91156	513.32123	1522.31067	-1027.33814	672.74060	1032.13894	-397.22810	576.29430	1030.11974	-551.76297	634.71402	541.59613	-329.95982	492.25922	556.92224	-537.36932	644.05136	127.74427	-322.71605	476.10300	126.10842	-559.41608	671.42206	1556.58697	-320.16206	492.24388	1550.60980	-571.49625	882.02441	1462.43213	-85.26157	319.60200	1449.02533	-831.89682	
123	1.01667	612.06580	1099.04651	-625.82416	756.32147	1106.58130	-405.42716	511.58148	1134.35107	-450.68536	554.35962	1132.41467	-378.36154	723.97473	941.29498	-308.53833	749.29480	830.18719	-328.90570	662.82294	726.22968	-289.93549	683.71252	551.07123	-292.46356	585.70245	532.09198	-367.51349	504.35754	895.23163	-629.90485	535.67242	766.63812	-643.16669	463.46530	665.48621	-585.92517	467.72430	563.88531	-594.23901	516.85443	549.94385	-480.55209	666.27112	416.77625	-355.17685	691.12952	355.61411	-283.00778	668.24121	250.13029	-346.81869	662.49103	124.58331	-286.69922	625.62799	130.85533	-358.67590	513.17816	428.60788	-574.11096	458.01166	348.01544	-609.64722	508.51010	228.95460	-575.16016	502.99737	127.43425	-529.29089	449.24954	124.79250	-589.51282	582.04950	99.35437	-289.16064	742.49835	57.61996	-437.45883	773.77997	54.47122	-324.52927	422.71783	97.40247	-518.98248	630.18372	63.41893	-615.28931	533.94397	53.31869	-680.33203	495.25507	1603.27966	-570.33319	672.76245	1604.25232	-323.58658	671.82507	1550.99988	-472.54617	547.49219	1601.05542	-413.36490	556.10773	1560.18799	-595.03595	428.56015	1540.97913	-548.08527	718.11896	1560.36768	-366.08466	624.97565	1552.82922	-274.64844	718.52325	1570.94043	-236.96797	796.32159	1539.80225	-220.34242	765.12244	1507.97180	-158.47159	882.65875	1498.80298	-67.66817	881.55573	1426.00330	-103.00098	429.25531	1574.34167	-631.81769	436.00787	1556.35852	-694.11883	376.84467	1483.82947	-670.32513	309.66690	1487.61755	-836.52014	329.69330	1410.23328	-827.35907	961.61951	1543.02075	-129.13142	1092.02820	1541.30176	-254.80762	1122.24451	1563.67676	-193.72243	389.38751	1520.79749	-885.30994	554.62323	1512.50208	-967.96912	513.44476	1522.07117	-1027.41174	672.79450	1032.15517	-397.20624	576.33995	1030.10743	-551.73548	634.70749	541.58160	-329.98853	492.28937	556.91458	-537.39555	644.05951	127.71932	-322.68756	476.12346	126.11338	-559.40186	671.54730	1556.59845	-320.36655	492.33394	1550.58356	-571.56061	882.10724	1462.40314	-85.33458	319.68010	1448.92541	-831.93961	
